<?xml version="1.0" encoding="utf-8"?>
<!-- Generator: Adobe Illustrator 17.1.0, SVG Export Plug-In . SVG Version: 6.00 Build 0)  -->
<!DOCTYPE svg PUBLIC "-//W3C//DTD SVG 1.1//EN" "http://www.w3.org/Graphics/SVG/1.1/DTD/svg11.dtd">
<svg version="1.1" id="Layer_2" xmlns="http://www.w3.org/2000/svg" xmlns:xlink="http://www.w3.org/1999/xlink" x="0px" y="0px"
	 width="300px" height="240px" viewBox="0 0 300 240" enable-background="new 0 0 300 240" xml:space="preserve">
<g>
	<path fill="#12110B" d="M23.6,72.1c-1.5,0-2.5-0.3-3.4-1.3l1-1c0.7,0.7,1.5,0.9,2.5,0.9c1.3,0,2-0.5,2-1.5c0-0.4-0.1-0.8-0.4-1
		c-0.2-0.2-0.5-0.3-1.1-0.4L23,67.7c-0.8-0.1-1.4-0.4-1.8-0.8c-0.5-0.5-0.7-1.1-0.7-1.9c0-1.7,1.2-2.9,3.2-2.9c1.3,0,2.2,0.3,3,1.1
		l-0.9,0.9c-0.6-0.6-1.3-0.8-2.1-0.8c-1.1,0-1.8,0.7-1.8,1.5c0,0.4,0.1,0.7,0.4,0.9c0.2,0.2,0.6,0.4,1.1,0.5l1.1,0.2
		c0.9,0.1,1.4,0.4,1.8,0.7c0.5,0.5,0.8,1.2,0.8,2C27.1,71,25.6,72.1,23.6,72.1z"/>
	<path fill="#12110B" d="M30.9,72c-1.3,0-1.9-1-1.9-2v-3.8h-0.8v-1.1H29V63h1.4v2.1h1.3v1.1h-1.3V70c0,0.5,0.2,0.8,0.8,0.8h0.6V72
		H30.9z"/>
	<path fill="#12110B" d="M37.2,72v-0.6c-0.5,0.5-1,0.7-1.8,0.7c-0.9,0-1.4-0.2-1.9-0.6C33.1,71.1,33,70.6,33,70c0-1.2,0.8-2,2.4-2
		h1.8v-0.5c0-0.9-0.4-1.3-1.5-1.3c-0.8,0-1.1,0.2-1.5,0.7L33.3,66c0.7-0.8,1.3-1,2.5-1c1.9,0,2.9,0.8,2.9,2.4V72H37.2z M37.2,68.9
		h-1.6c-0.8,0-1.2,0.4-1.2,1s0.4,1,1.3,1c0.5,0,0.9,0,1.3-0.4c0.2-0.2,0.3-0.5,0.3-1L37.2,68.9L37.2,68.9z"/>
	<path fill="#12110B" d="M43.5,72.1c-1.6,0-3.1-1-3.1-3.5s1.5-3.5,3.1-3.5c1,0,1.6,0.3,2.3,1l-1,0.9c-0.4-0.5-0.8-0.7-1.3-0.7
		s-1,0.2-1.3,0.6s-0.4,0.9-0.4,1.7s0.1,1.3,0.4,1.7c0.3,0.4,0.8,0.6,1.3,0.6s0.9-0.2,1.3-0.7l1,0.9C45.1,71.8,44.4,72.1,43.5,72.1z"
		/>
	<path fill="#12110B" d="M51.7,72l-1.9-3.2l-1,1.2v2h-1.4v-9.7h1.4v6l2.7-3.2h1.7l-2.4,2.7l2.7,4.2H51.7z"/>
	<path fill="#2F96E8" d="M54.9,72v-9.7h6.4V64h-4.5v2.3h3.8V68h-3.8v2.4h4.5V72H54.9z"/>
	<path fill="#2F96E8" d="M66.9,72l-1.3-2.1L64.3,72h-2.1l2.5-3.6l-2.4-3.5h2.1l1.2,2l1.2-2h2.1l-2.4,3.5L69,72H66.9z"/>
	<path fill="#2F96E8" d="M72.7,72.1c-1.4,0-3.2-0.8-3.2-3.6c0-2.9,1.8-3.6,3.2-3.6c1,0,1.7,0.3,2.3,1l-1.2,1.2
		c-0.4-0.4-0.7-0.6-1.1-0.6s-0.8,0.2-1,0.5c-0.3,0.3-0.4,0.8-0.4,1.6c0,0.8,0.1,1.2,0.4,1.6c0.3,0.3,0.6,0.5,1,0.5
		c0.5,0,0.8-0.2,1.1-0.6l1.2,1.2C74.4,71.7,73.7,72.1,72.7,72.1z"/>
	<path fill="#2F96E8" d="M80.5,72v-4.3c0-0.9-0.6-1.3-1.2-1.3s-1.1,0.3-1.1,1.3V72h-1.8v-9.7h1.8v3.3c0.5-0.5,1.1-0.7,1.7-0.7
		c1.6,0,2.4,1.1,2.4,2.6V72H80.5z"/>
	<path fill="#2F96E8" d="M87.8,72v-0.6c-0.5,0.5-0.9,0.7-1.7,0.7c-0.8,0-1.4-0.2-1.8-0.6s-0.6-1-0.6-1.6c0-1.1,0.8-2.1,2.4-2.1h1.7
		v-0.4c0-0.8-0.4-1.1-1.3-1.1c-0.7,0-1,0.2-1.4,0.6L84,65.8c0.7-0.8,1.4-1,2.6-1c2,0,3,0.8,3,2.5V72H87.8z M87.8,69h-1.4
		c-0.6,0-1,0.3-1,0.8s0.3,0.8,1,0.8c0.5,0,0.8,0,1.1-0.3c0.2-0.2,0.3-0.5,0.3-0.9V69z"/>
	<path fill="#2F96E8" d="M95.6,72v-4.3c0-1-0.6-1.3-1.2-1.3s-1.2,0.3-1.2,1.3V72h-1.8v-7.1h1.7v0.7c0.5-0.5,1.1-0.7,1.8-0.7
		c0.7,0,1.3,0.2,1.7,0.6c0.6,0.6,0.7,1.2,0.7,2V72H95.6z"/>
	<path fill="#2F96E8" d="M101.8,74.7c-1.1,0-1.8-0.2-2.6-0.9l1.1-1.1c0.4,0.4,0.8,0.5,1.4,0.5c1.1,0,1.4-0.8,1.4-1.5V71
		c-0.5,0.5-1,0.7-1.7,0.7s-1.3-0.2-1.7-0.6C99,70.4,99,69.5,99,68.3s0.1-2.1,0.7-2.8c0.4-0.4,1-0.6,1.7-0.6c0.8,0,1.2,0.2,1.7,0.8
		V65h1.7v6.8C104.9,73.4,103.7,74.7,101.8,74.7z M101.9,66.4c-1.1,0-1.2,0.9-1.2,1.8s0.1,1.9,1.2,1.9s1.2-0.9,1.2-1.9
		C103.1,67.3,103,66.4,101.9,66.4z"/>
	<path fill="#2F96E8" d="M108.3,69c0,0.9,0.6,1.6,1.6,1.6c0.8,0,1.2-0.2,1.6-0.7l1.1,1.1c-0.7,0.7-1.4,1.1-2.7,1.1
		c-1.7,0-3.3-0.8-3.3-3.6c0-2.3,1.3-3.6,3.1-3.6c2,0,3.1,1.4,3.1,3.4V69H108.3z M110.8,67c-0.2-0.4-0.6-0.7-1.2-0.7s-1,0.3-1.2,0.7
		c-0.1,0.3-0.1,0.5-0.2,0.8h2.7C111,67.4,110.9,67.3,110.8,67z"/>
	<g>
		<rect x="0.8" y="67.5" fill="#3667AF" width="11.6" height="2.4"/>
		<rect x="0.8" y="64.4" fill="#55A2D9" width="11.6" height="2.4"/>
		<path fill="#A3D9F6" d="M10.6,61.2H2.7c-1,0-1.8,0.9-1.8,1.9v0.6h11.6v-0.6C12.4,62.1,11.6,61.2,10.6,61.2z"/>
		<path fill="#24488D" d="M0.8,70.6v0.6c0,1.1,0.8,1.9,1.8,1.9h5v2.5l2.4-2.5h0.5c1,0,1.8-0.9,1.8-1.9v-0.6H0.8z"/>
		<path opacity="0.15" fill="#FFFFFF" enable-background="new    " d="M0.8,70.6v0.6c0,1.1,0.8,1.9,1.8,1.9H3l2.4-2.5H0.8z"/>
		<polygon opacity="0.15" fill="#FFFFFF" enable-background="new    " points="11.4,64.4 0.8,64.4 0.8,66.8 9.1,66.8 		"/>
		<polygon opacity="0.15" fill="#FFFFFF" enable-background="new    " points="8.4,67.5 0.8,67.5 0.8,69.9 6.1,69.9 		"/>
	</g>
</g>
<g>
	<path fill="#FFFFFF" d="M23.6,40.8c-1.5,0-2.5-0.3-3.4-1.3l1-1c0.7,0.7,1.5,0.9,2.5,0.9c1.3,0,2-0.5,2-1.5c0-0.4-0.1-0.8-0.4-1
		c-0.2-0.2-0.5-0.3-1.1-0.4L23,36.4c-0.8-0.1-1.4-0.4-1.8-0.8c-0.5-0.5-0.7-1.1-0.7-1.9c0-1.7,1.2-2.9,3.2-2.9c1.3,0,2.2,0.3,3,1.1
		l-0.9,0.9c-0.6-0.6-1.3-0.8-2.1-0.8c-1.1,0-1.8,0.7-1.8,1.5c0,0.4,0.1,0.7,0.4,0.9c0.2,0.2,0.6,0.4,1.1,0.5l1.1,0.2
		c0.9,0.1,1.4,0.4,1.8,0.7c0.5,0.5,0.8,1.2,0.8,2C27.1,39.7,25.6,40.8,23.6,40.8z"/>
	<path fill="#FFFFFF" d="M30.9,40.7c-1.3,0-1.9-0.9-1.9-1.9V35h-0.8v-1.1H29v-2.1h1.4v2.1h1.3V35h-1.3v3.7c0,0.5,0.2,0.8,0.8,0.8
		h0.6v1.2H30.9z"/>
	<path fill="#FFFFFF" d="M37.2,40.7V40c-0.5,0.5-1,0.7-1.8,0.7c-0.9,0-1.4-0.2-1.9-0.6c-0.4-0.4-0.5-0.9-0.5-1.5c0-1.2,0.8-2,2.4-2
		h1.8v-0.5c0-0.9-0.4-1.3-1.5-1.3c-0.8,0-1.1,0.2-1.5,0.7l-0.9-0.9c0.7-0.8,1.3-1,2.5-1c1.9,0,2.9,0.8,2.9,2.4v4.6L37.2,40.7
		L37.2,40.7z M37.2,37.6h-1.6c-0.8,0-1.2,0.4-1.2,1s0.4,1,1.3,1c0.5,0,0.9,0,1.3-0.4c0.2-0.2,0.3-0.5,0.3-1L37.2,37.6L37.2,37.6z"/>
	<path fill="#FFFFFF" d="M43.5,40.8c-1.6,0-3.1-1-3.1-3.5c0-2.6,1.5-3.5,3.1-3.5c1,0,1.6,0.3,2.3,1l-1,0.9C44.4,35.2,44,35,43.5,35
		s-1,0.2-1.3,0.6c-0.3,0.4-0.4,0.9-0.4,1.7s0.1,1.3,0.4,1.7c0.3,0.4,0.8,0.6,1.3,0.6s0.9-0.2,1.3-0.7l1,0.9
		C45.1,40.5,44.4,40.8,43.5,40.8z"/>
	<path fill="#FFFFFF" d="M51.7,40.7l-1.9-3.2l-1,1.2v2h-1.4V31h1.4v6l2.7-3.2h1.7l-2.4,2.7l2.7,4.2H51.7z"/>
	<path fill="#2F96E8" d="M54.9,40.7V31h6.4v1.7h-4.5V35h3.8v1.7h-3.8V39h4.5v1.7H54.9z"/>
	<path fill="#2F96E8" d="M66.9,40.7l-1.3-2.1l-1.3,2.1h-2.1l2.5-3.6l-2.4-3.5h2.1l1.2,2l1.2-2h2.1L66.5,37l2.5,3.6h-2.1V40.7z"/>
	<path fill="#2F96E8" d="M72.7,40.8c-1.4,0-3.2-0.8-3.2-3.6c0-2.9,1.8-3.6,3.2-3.6c1,0,1.7,0.3,2.3,1l-1.2,1.2
		c-0.4-0.4-0.7-0.6-1.1-0.6s-0.8,0.2-1,0.5c-0.3,0.3-0.4,0.8-0.4,1.6s0.1,1.2,0.4,1.6c0.3,0.3,0.6,0.5,1,0.5c0.5,0,0.8-0.2,1.1-0.6
		L75,40C74.4,40.4,73.7,40.8,72.7,40.8z"/>
	<path fill="#2F96E8" d="M80.5,40.7v-4.3c0-0.9-0.6-1.3-1.2-1.3s-1.1,0.3-1.1,1.3v4.3h-1.8V31h1.8v3.3c0.5-0.5,1.1-0.7,1.7-0.7
		c1.6,0,2.4,1.1,2.4,2.6v4.6L80.5,40.7L80.5,40.7z"/>
	<path fill="#2F96E8" d="M87.8,40.7v-0.6c-0.5,0.5-0.9,0.7-1.7,0.7c-0.8,0-1.4-0.2-1.8-0.6c-0.4-0.4-0.6-1-0.6-1.6
		c0-1.1,0.8-2.1,2.4-2.1h1.7v-0.4c0-0.8-0.4-1.1-1.3-1.1c-0.7,0-1,0.2-1.4,0.6L84,34.5c0.7-0.8,1.4-1,2.6-1c2,0,3,0.8,3,2.5v4.7
		H87.8z M87.8,37.7h-1.4c-0.6,0-1,0.3-1,0.8s0.3,0.8,1,0.8c0.5,0,0.8,0,1.1-0.3c0.2-0.2,0.3-0.5,0.3-0.9V37.7z"/>
	<path fill="#2F96E8" d="M95.6,40.7v-4.3c0-1-0.6-1.3-1.2-1.3s-1.2,0.3-1.2,1.3v4.3h-1.8v-7.1h1.7v0.7c0.5-0.5,1.1-0.7,1.8-0.7
		c0.7,0,1.3,0.2,1.7,0.6c0.6,0.6,0.7,1.2,0.7,2v4.5H95.6z"/>
	<path fill="#2F96E8" d="M101.8,43.4c-1.1,0-1.8-0.2-2.6-0.9l1.1-1.1c0.4,0.4,0.8,0.5,1.4,0.5c1.1,0,1.4-0.8,1.4-1.5v-0.7
		c-0.5,0.5-1,0.7-1.7,0.7s-1.3-0.2-1.7-0.6C99,39.1,99,38.2,99,37s0.1-2.1,0.7-2.8c0.4-0.4,1-0.6,1.7-0.6c0.8,0,1.2,0.2,1.7,0.8
		v-0.7h1.7v6.8C104.9,42.1,103.7,43.4,101.8,43.4z M101.9,35.1c-1.1,0-1.2,0.9-1.2,1.8c0,0.9,0.1,1.9,1.2,1.9s1.2-0.9,1.2-1.9
		C103.1,36,103,35.1,101.9,35.1z"/>
	<path fill="#2F96E8" d="M108.3,37.7c0,0.9,0.6,1.6,1.6,1.6c0.8,0,1.2-0.2,1.6-0.7l1.1,1.1c-0.7,0.7-1.4,1.1-2.7,1.1
		c-1.7,0-3.3-0.8-3.3-3.6c0-2.3,1.3-3.6,3.1-3.6c2,0,3.1,1.4,3.1,3.4v0.8L108.3,37.7L108.3,37.7z M110.8,35.7
		c-0.2-0.4-0.6-0.7-1.2-0.7s-1,0.3-1.2,0.7c-0.1,0.3-0.1,0.5-0.2,0.8h2.7C111,36.1,110.9,36,110.8,35.7z"/>
	<g>
		<rect x="0.8" y="36.2" fill="#3667AF" width="11.6" height="2.4"/>
		<rect x="0.8" y="33.1" fill="#55A2D9" width="11.6" height="2.4"/>
		<path fill="#A3D9F6" d="M10.6,29.9H2.7c-1,0-1.8,0.9-1.8,1.9v0.6h11.6v-0.6C12.4,30.8,11.6,29.9,10.6,29.9z"/>
		<path fill="#24488D" d="M0.8,39.3v0.6c0,1.1,0.8,1.9,1.8,1.9h5v2.5l2.4-2.5h0.5c1,0,1.8-0.9,1.8-1.9v-0.6H0.8z"/>
		<path opacity="0.15" fill="#FFFFFF" enable-background="new    " d="M0.8,39.3v0.6c0,1.1,0.8,1.9,1.8,1.9H3l2.4-2.5H0.8z"/>
		<polygon opacity="0.15" fill="#FFFFFF" enable-background="new    " points="11.4,33.1 0.8,33.1 0.8,35.5 9.1,35.5 		"/>
		<polygon opacity="0.15" fill="#FFFFFF" enable-background="new    " points="8.4,36.2 0.8,36.2 0.8,38.6 6.1,38.6 		"/>
	</g>
</g>
<polygon fill="#888888" points="120.1,34.3 128.1,34.3 124.1,40 "/>
<polygon fill="#888888" points="20.1,104.2 20.1,96.2 25.8,100.2 "/>
<polygon fill="#888888" points="0,97 8,97 4,102.7 "/>
<polygon fill="#888888" points="120.1,65 128.1,65 124.1,70.7 "/>
<polygon fill="#888888" points="154.5,109.2 150,102.9 154.6,96.8 159.1,102.9 "/>
<polygon fill="#FE7A15" points="174.5,109.2 170,102.9 174.6,96.8 179.1,102.9 "/>
<polygon fill="#E0E0E0" points="194.4,109.2 190,102.9 194.5,96.8 199,102.9 "/>
<polygon fill="#1E7ECB" points="234.5,109.2 230,102.9 234.6,96.8 239.1,102.9 "/>
<g>
	<path fill="#B7B7B7" d="M278.5,106.1c-2.7,0-4.9-2.2-4.9-4.9c0-2.7,2.2-4.9,4.9-4.9s4.9,2.2,4.9,4.9S281.2,106.1,278.5,106.1z
		 M278.5,97.3c-2.2,0-3.9,1.7-3.9,3.9s1.7,3.9,3.9,3.9s3.9-1.7,3.9-3.9S280.7,97.3,278.5,97.3z"/>
	
		<rect x="280.8" y="105.6" transform="matrix(-0.7176 -0.6964 0.6964 -0.7176 412.6965 379.503)" fill="#B7B7B7" width="5" height="0.9"/>
</g>
<g>
	<rect x="230.9" y="71.7" fill="#888888" width="2" height="4.1"/>
	<rect x="233.7" y="70.8" fill="#888888" width="2.2" height="5.1"/>
	<rect x="236.7" y="69.2" fill="#888888" width="2.2" height="6.7"/>
	<rect x="239.8" y="70.5" fill="#888888" width="2.2" height="5.4"/>
	<rect x="242.9" y="68.2" fill="#888888" width="2.2" height="7.7"/>
	<polygon fill="#888888" points="232.8,68.9 233.7,68.9 233.7,69.2 235.8,69.2 235.8,68.1 236.9,67 238.9,67 238.9,66.8 239.8,66.8 
		239.8,67.9 241.9,67.9 241.9,66.9 243,66.3 243,66.4 245.1,66.4 245.1,64.2 243,64.2 243,65.6 241.9,66.2 241.9,65.7 239.8,65.7 
		239.8,66.2 238.9,66.2 238.9,64.8 236.8,64.8 236.8,66.3 235.8,67.2 235.8,67 233.7,67 233.7,68.3 232.8,68.3 232.8,67.6 
		230.9,67.6 230.9,69.6 232.8,69.6 	"/>
</g>
<g>
	<rect x="271" y="71.7" fill="#33A030" width="2" height="4.1"/>
	<rect x="273.7" y="70.8" fill="#33A030" width="2.2" height="5.1"/>
	<rect x="276.7" y="69.2" fill="#33A030" width="2.2" height="6.7"/>
	<rect x="279.8" y="70.5" fill="#33A030" width="2.2" height="5.4"/>
	<rect x="283" y="68.2" fill="#33A030" width="2.2" height="7.7"/>
	<polygon fill="#33A030" points="272.8,68.9 273.7,68.9 273.7,69.2 275.9,69.2 275.9,68.1 276.9,67 278.9,67 278.9,66.8 279.8,66.8 
		279.8,67.9 282,67.9 282,66.9 283,66.3 283,66.4 285.1,66.4 285.1,64.2 283,64.2 283,65.6 282,66.2 282,65.7 279.8,65.7 
		279.8,66.2 278.9,66.2 278.9,64.8 276.8,64.8 276.8,66.3 275.9,67.2 275.9,67 273.7,67 273.7,68.3 272.8,68.3 272.8,67.6 271,67.6 
		271,69.6 272.8,69.6 	"/>
</g>
<path fill="#E0E0E0" d="M202.5,65.1h-6.9l-4.9,5.9v4c0,0.5,0.4,1,1,1h14.8c0.5,0,1-0.4,1-1v-4L202.5,65.1z M203.5,71l-2,2h-5l-2-2
	h-2.7l4.1-4.9h6L206,71H203.5L203.5,71z"/>
<path fill="#888888" d="M161.9,65.1H155l-5,5.9v4c0,0.5,0.4,1,1,1h14.8c0.5,0,1-0.4,1-1v-4L161.9,65.1z M162.9,71l-2,2h-5l-2-2h-2.7
	l4.1-4.9h6l4.1,4.9H162.9L162.9,71z"/>
<g>
	<g>
		<path fill="#B1B1B1" d="M153.2,167.2c-0.8,0.3-2,0.5-3.2,0.5c-6.8,0-12.4-5.5-12.4-12.3s5.6-12.2,12.4-12.2
			c6.8,0,12.4,5.5,12.4,12.2c0,0.7-0.4,2.8-1,4.6c-1,3-4.4,11.1-4.5,11.4l-0.7,1.6L153.2,167.2z M139.2,155.5
			c0,5.9,4.9,10.7,10.8,10.7c1.6,0,2.8-0.4,3.2-0.6l0.7-0.3l2.1,4.1c1.1-2.6,3.1-7.6,3.8-9.7c0.6-1.8,1-3.7,1-4.1
			c0-5.9-4.9-10.7-10.8-10.7C144,144.8,139.2,149.6,139.2,155.5z"/>
	</g>
	<g>
		<path fill="#B1B1B1" d="M151,149.8l4.5,11.4h-1.7l-1.2-3.4h-4.8l-1.3,3.4H145l4.4-11.4H151z M152.1,156.5l-1.9-5.3l0,0l-1.9,5.3
			H152.1z"/>
	</g>
</g>
<g>
	<g>
		<path fill="#B1B1B1" d="M151,197.1c-0.8,0.3-2,0.5-3.2,0.5c-6.8,0-12.4-5.5-12.4-12.3s5.6-12.2,12.4-12.2
			c6.8,0,12.4,5.5,12.4,12.2c0,0.7-0.4,2.8-1,4.6c-1,3-4.4,11.1-4.5,11.4l-0.7,1.6L151,197.1z M136.9,185.3
			c0,5.9,4.9,10.7,10.8,10.7c1.6,0,2.8-0.4,3.2-0.6l0.7-0.3l2.1,4.1c1.1-2.6,3.1-7.6,3.8-9.7c0.6-1.8,1-3.7,1-4.1
			c0-5.9-4.9-10.7-10.8-10.7C141.8,174.6,136.9,179.4,136.9,185.3z"/>
	</g>
	<g>
		<path fill="#B1B1B1" d="M148.8,179.6l4.5,11.4h-1.7l-1.2-3.4h-4.8l-1.3,3.4h-1.5l4.4-11.4H148.8z M149.8,186.3l-1.9-5.3l0,0
			l-1.9,5.3H149.8z"/>
	</g>
</g>
<g>
	<g>
		<path fill="#83B869" d="M127.3,178.4c-0.8,0.3-2,0.5-3.2,0.5c-6.8,0-12.4-5.5-12.4-12.3s5.6-12.2,12.4-12.2s12.4,5.5,12.4,12.2
			c0,0.7-0.4,2.8-1,4.6c-1,3-4.4,11.1-4.5,11.4l-0.7,1.6L127.3,178.4z M113.3,166.6c0,5.9,4.9,10.7,10.8,10.7c1.6,0,2.8-0.4,3.2-0.6
			l0.7-0.3l2.1,4.1c1.1-2.6,3.1-7.6,3.8-9.7c0.6-1.8,1-3.7,1-4.1c0-5.9-4.9-10.7-10.8-10.7C118.1,156,113.3,160.8,113.3,166.6z"/>
	</g>
	<g>
		<path fill="#83B869" d="M125.1,161l4.5,11.4h-1.7l-1.2-3.4h-4.8l-1.3,3.4H119l4.4-11.4H125.1z M126.2,167.7l-1.9-5.3l0,0l-1.9,5.3
			H126.2z"/>
	</g>
</g>
<g>
	<g>
		<path fill="#B1B1B1" d="M289.8,191.1c-0.6,0.2-1.6,0.4-2.5,0.4c-5.3,0-9.7-4.3-9.7-9.6s4.3-9.6,9.7-9.6c5.3,0,9.7,4.3,9.7,9.6
			c0,0.6-0.3,2.2-0.8,3.6c-0.8,2.3-3.4,8.7-3.5,8.9l-0.5,1.2L289.8,191.1z M278.8,181.9c0,4.6,3.8,8.4,8.5,8.4
			c1.3,0,2.2-0.3,2.5-0.5l0.5-0.3l1.6,3.2c0.8-2,2.4-6,3-7.6c0.5-1.4,0.8-2.9,0.8-3.2c0-4.6-3.8-8.4-8.5-8.4
			C282.6,173.5,278.8,177.3,278.8,181.9z"/>
	</g>
	<g>
		<path fill="#B1B1B1" d="M288.1,177.5l3.5,8.9h-1.3l-1-2.7h-3.8l-1,2.7h-1.2l3.5-8.9H288.1z M288.9,182.7l-1.5-4.2l0,0l-1.5,4.2
			H288.9z"/>
	</g>
</g>
<g>
	<g>
		<path fill="#B1B1B1" d="M279.1,206.1c-0.4,0.1-0.9,0.2-1.5,0.2c-3.1,0-5.6-2.5-5.6-5.6s2.5-5.6,5.6-5.6s5.6,2.5,5.6,5.6
			c0,0.3-0.2,1.2-0.5,2.1c-0.5,1.3-2,5-2.1,5.2l-0.3,0.7L279.1,206.1z M272.8,200.8c0,2.7,2.2,4.8,4.9,4.8c0.7,0,1.3-0.2,1.5-0.3
			l0.3-0.2l0.9,1.9c0.5-1.2,1.4-3.5,1.7-4.4c0.3-0.8,0.4-1.7,0.4-1.9c0-2.7-2.2-4.8-4.9-4.8C275,195.9,272.8,198.1,272.8,200.8z"/>
	</g>
	<g>
		<path fill="#B1B1B1" d="M278.1,198.2l2,5.2h-0.8l-0.6-1.6h-2.2l-0.6,1.6h-0.7l2-5.2H278.1z M278.6,201.3l-0.9-2.4l0,0l-0.9,2.4
			H278.6z"/>
	</g>
</g>
<g>
	<g>
		<path fill="#B1B1B1" d="M263.9,197.9c-0.5,0.2-1.2,0.3-2,0.3c-4.3,0-7.7-3.4-7.7-7.6c0-4.2,3.5-7.6,7.7-7.6c4.3,0,7.7,3.4,7.7,7.6
			c0,0.5-0.3,1.7-0.6,2.9c-0.6,1.8-2.7,6.9-2.8,7.1l-0.4,1L263.9,197.9z M255.2,190.5c0,3.7,3,6.7,6.7,6.7c1,0,1.8-0.2,2-0.4
			l0.4-0.2l1.3,2.6c0.7-1.6,1.9-4.7,2.4-6.1c0.4-1.2,0.6-2.3,0.6-2.6c0-3.7-3-6.7-6.7-6.7C258.2,183.9,255.2,186.9,255.2,190.5z"/>
	</g>
	<g>
		<path fill="#B1B1B1" d="M262.6,187l2.8,7.1h-1l-0.8-2.1h-3l-0.8,2.1h-1l2.8-7.1H262.6z M263.2,191.2l-1.2-3.3l0,0l-1.2,3.3H263.2z
			"/>
	</g>
</g>
<g>
	<g>
		<path fill="#B1B1B1" d="M244.8,185.3c-0.8,0.3-2,0.5-3.3,0.5c-6.9,0-12.5-5.6-12.5-12.4c0-6.8,5.6-12.4,12.5-12.4
			s12.5,5.6,12.5,12.4c0,0.7-0.4,2.8-1.1,4.7c-1,3-4.4,11.2-4.6,11.6l-0.7,1.6L244.8,185.3z M230.6,173.4c0,6,4.9,10.8,11,10.8
			c1.6,0,2.9-0.4,3.3-0.6l0.7-0.4l2.1,4.2c1.1-2.6,3.2-7.7,3.9-9.9c0.6-1.9,1-3.7,1-4.2c0-6-4.9-10.8-11-10.8
			C235.5,162.6,230.6,167.4,230.6,173.4z"/>
	</g>
	<g>
		<path fill="#B1B1B1" d="M242.6,167.7l4.5,11.6h-1.7l-1.3-3.5h-4.9l-1.3,3.5h-1.6l4.5-11.6H242.6z M243.6,174.4l-1.9-5.4l0,0
			l-2,5.4H243.6z"/>
	</g>
</g>
<g>
	<g>
		<path fill="#83B869" d="M268.1,176.1c-1.4,0.4-3.3,0.8-5.3,0.8c-11.3,0-20.5-9.1-20.5-20.3s9.2-20.3,20.5-20.3
			c11.3,0,20.5,9.1,20.5,20.3c0,1.2-0.7,4.6-1.7,7.6c-1.6,4.9-7.2,18.3-7.5,18.9l-1.1,2.6L268.1,176.1z"/>
	</g>
	<g>
		<path fill="#FFFFFF" d="M264.5,147.3l7.4,18.9h-2.8l-2.1-5.7h-8l-2.1,5.7h-2.6l7.3-18.9H264.5z M266.2,158.4l-3.1-8.8H263
			l-3.2,8.8H266.2z"/>
	</g>
</g>
<g>
	<g>
		<g>
			<path fill="#B1B1B1" d="M13.8,200.3l-1.3-3.1c-0.3-0.7-6.9-16.6-8.9-22.4c-1.2-3.6-2-7.6-2-9c0-6.4,2.5-12.4,7.1-17
				c4.6-4.5,10.7-7,17.2-7c13.4,0,24.3,10.8,24.3,24c0,6.4-2.5,12.5-7.1,17s-10.7,7-17.2,7c-2.4,0-4.7-0.4-6.3-0.9L13.8,200.3z
				 M25.8,144.8c-5.7,0-11,2.2-15,6.2s-6.2,9.2-6.2,14.8c0,0.8,0.7,4.4,1.9,8.1c1.4,4.2,5.4,14.1,7.5,19.1l4.1-8.1l1.4,0.7
				c0.8,0.4,3.2,1.2,6.4,1.2c5.7,0,11-2.2,15-6.2s6.2-9.2,6.2-14.8C47.1,154.2,37.5,144.8,25.8,144.8z"/>
		</g>
	</g>
	<g>
		<path fill="#B1B1B1" d="M29.7,170.9c0.7-0.7,1.2-1.5,1.5-2.5s0.5-2,0.5-3.1c0-0.9-0.1-1.8-0.3-2.6c-0.2-0.9-0.6-1.6-1.1-2.3
			s-1.1-1.2-1.9-1.7c-0.8-0.4-1.7-0.6-2.8-0.6c-1.1,0-2,0.2-2.8,0.6c-0.8,0.4-1.4,1-1.9,1.7s-0.9,1.5-1.1,2.3
			c-0.2,0.9-0.3,1.7-0.3,2.6c0,0.9,0.1,1.8,0.3,2.6c0.2,0.9,0.6,1.6,1.1,2.3s1.1,1.2,1.9,1.7c0.8,0.4,1.7,0.6,2.8,0.6
			c0.8,0,1.6-0.2,2.4-0.5l-1.9-1.6l1.2-1.4L29.7,170.9L29.7,170.9z M29.9,173.4c-1.2,0.7-2.6,1-4.2,1c-1.4,0-2.6-0.2-3.7-0.7
			s-1.9-1.2-2.6-2c-0.7-0.9-1.2-1.8-1.6-2.9c-0.4-1.1-0.5-2.3-0.5-3.5s0.2-2.4,0.5-3.5c0.4-1.1,0.9-2.1,1.6-2.9
			c0.7-0.9,1.6-1.5,2.6-2s2.3-0.8,3.7-0.8c1.4,0,2.6,0.3,3.7,0.8s1.9,1.2,2.6,2c0.7,0.9,1.2,1.8,1.6,2.9c0.4,1.1,0.5,2.3,0.5,3.5
			c0,1.3-0.2,2.6-0.7,3.8c-0.4,1.2-1.1,2.3-2,3.2l2.3,1.8l-1.2,1.5L29.9,173.4L29.9,173.4z"/>
	</g>
</g>
<g>
	<path fill="#231F20" d="M199.7,33.3c0.1,0.3,0.3,0.5,0.5,0.6c0.2,0.2,0.5,0.3,0.8,0.4c0.3,0.1,0.6,0.1,0.9,0.1c0.2,0,0.4,0,0.7-0.1
		c0.2,0,0.5-0.1,0.7-0.2c0.2-0.1,0.4-0.2,0.5-0.4s0.2-0.4,0.2-0.7s-0.1-0.5-0.3-0.7s-0.4-0.3-0.7-0.5c-0.3-0.1-0.7-0.2-1-0.3
		c-0.4-0.1-0.8-0.2-1.2-0.3c-0.4-0.1-0.8-0.2-1.2-0.4c-0.4-0.1-0.7-0.3-1-0.6c-0.3-0.2-0.6-0.5-0.7-0.9c-0.2-0.4-0.3-0.8-0.3-1.3
		c0-0.6,0.1-1.1,0.4-1.5c0.2-0.4,0.6-0.8,0.9-1c0.4-0.3,0.8-0.5,1.3-0.6s1-0.2,1.5-0.2c0.6,0,1.1,0.1,1.7,0.2c0.5,0.1,1,0.3,1.4,0.6
		c0.4,0.3,0.7,0.7,1,1.1c0.2,0.4,0.4,1,0.4,1.6h-2.3c0-0.3-0.1-0.6-0.2-0.8c-0.1-0.2-0.3-0.4-0.5-0.5s-0.4-0.2-0.7-0.3
		s-0.5-0.1-0.8-0.1c-0.2,0-0.4,0-0.6,0.1c-0.2,0-0.4,0.1-0.5,0.2c-0.2,0.1-0.3,0.2-0.4,0.4c-0.1,0.2-0.2,0.3-0.2,0.6
		c0,0.2,0,0.4,0.1,0.5s0.2,0.3,0.5,0.4c0.2,0.1,0.6,0.2,1,0.3c0.4,0.1,1,0.3,1.7,0.4c0.2,0,0.5,0.1,0.9,0.2s0.7,0.3,1.1,0.5
		c0.4,0.2,0.7,0.6,0.9,0.9c0.3,0.4,0.4,0.9,0.4,1.5c0,0.5-0.1,1-0.3,1.4s-0.5,0.8-0.9,1.1s-0.9,0.6-1.4,0.7c-0.6,0.2-1.2,0.3-2,0.3
		c-0.6,0-1.2-0.1-1.8-0.2s-1.1-0.4-1.5-0.7s-0.8-0.7-1-1.2s-0.4-1.1-0.4-1.8h2.3C199.5,32.7,199.5,33,199.7,33.3z"/>
	<path fill="#231F20" d="M209.6,28.1v1l0,0c0.3-0.4,0.6-0.7,1-0.9c0.4-0.2,0.9-0.3,1.4-0.3c0.6,0,1.2,0.1,1.6,0.4
		c0.5,0.2,0.8,0.5,1.1,0.9s0.5,0.8,0.7,1.4c0.1,0.5,0.2,1.1,0.2,1.6s-0.1,1-0.2,1.5s-0.4,0.9-0.7,1.3c-0.3,0.4-0.7,0.7-1.1,0.9
		c-0.4,0.2-0.9,0.3-1.5,0.3c-0.5,0-0.9-0.1-1.4-0.3c-0.4-0.2-0.8-0.5-1-0.9l0,0v3.8h-2.2V28.1H209.6z M212.5,34.4
		c0.2-0.1,0.4-0.3,0.6-0.6c0.1-0.2,0.3-0.5,0.3-0.8s0.1-0.6,0.1-0.9s0-0.6-0.1-0.9s-0.2-0.6-0.3-0.8c-0.2-0.2-0.4-0.4-0.6-0.6
		c-0.2-0.1-0.5-0.2-0.9-0.2s-0.7,0.1-0.9,0.2s-0.4,0.3-0.6,0.6c-0.1,0.2-0.3,0.5-0.3,0.8s-0.1,0.6-0.1,1c0,0.3,0,0.6,0.1,0.9
		s0.2,0.6,0.3,0.8s0.3,0.4,0.6,0.6c0.2,0.1,0.5,0.2,0.9,0.2C211.9,34.6,212.2,34.5,212.5,34.4z"/>
	<path fill="#231F20" d="M217,30.3c0.2-0.5,0.5-1,0.8-1.3c0.4-0.4,0.8-0.6,1.3-0.8c0.5-0.2,1.1-0.3,1.7-0.3s1.2,0.1,1.7,0.3
		c0.5,0.2,0.9,0.5,1.3,0.8c0.4,0.4,0.6,0.8,0.8,1.3s0.3,1.1,0.3,1.7c0,0.6-0.1,1.2-0.3,1.7s-0.5,1-0.8,1.3c-0.4,0.4-0.8,0.6-1.3,0.8
		s-1.1,0.3-1.7,0.3s-1.2-0.1-1.7-0.3s-0.9-0.5-1.3-0.8c-0.4-0.4-0.6-0.8-0.8-1.3s-0.3-1.1-0.3-1.7C216.7,31.4,216.8,30.8,217,30.3z
		 M219,33c0.1,0.3,0.2,0.6,0.3,0.8s0.3,0.4,0.6,0.6c0.2,0.1,0.6,0.2,0.9,0.2c0.4,0,0.7-0.1,0.9-0.2c0.3-0.1,0.5-0.3,0.6-0.6
		s0.3-0.5,0.3-0.8c0.1-0.3,0.1-0.6,0.1-0.9c0-0.3,0-0.6-0.1-0.9s-0.2-0.6-0.3-0.8c-0.1-0.2-0.3-0.4-0.6-0.6s-0.6-0.2-0.9-0.2
		c-0.4,0-0.7,0.1-0.9,0.2s-0.4,0.3-0.6,0.6c-0.1,0.2-0.3,0.5-0.3,0.8s-0.1,0.6-0.1,0.9C218.9,32.4,218.9,32.7,219,33z"/>
	<path fill="#231F20" d="M228.4,28.1v1.1l0,0c0.3-0.5,0.6-0.8,1.1-1s0.9-0.3,1.4-0.3c0.6,0,1.1,0.1,1.4,0.2s0.7,0.4,0.9,0.7
		c0.2,0.3,0.4,0.6,0.5,1s0.1,0.9,0.1,1.3V36h-2.2v-4.5c0-0.7-0.1-1.1-0.3-1.5s-0.6-0.5-1.1-0.5c-0.6,0-1,0.2-1.3,0.5
		c-0.3,0.4-0.4,0.9-0.4,1.7V36h-2.2v-7.9H228.4z"/>
	<path fill="#231F20" d="M237.3,34c0.1,0.2,0.2,0.3,0.4,0.4c0.2,0.1,0.3,0.2,0.5,0.2c0.2,0.1,0.4,0.1,0.6,0.1c0.2,0,0.3,0,0.5-0.1
		c0.2,0,0.3-0.1,0.5-0.2c0.1-0.1,0.3-0.2,0.3-0.3c0.1-0.1,0.1-0.3,0.1-0.5c0-0.3-0.2-0.6-0.7-0.7c-0.4-0.2-1-0.3-1.8-0.5
		c-0.3-0.1-0.6-0.2-0.9-0.3s-0.6-0.2-0.8-0.4c-0.2-0.2-0.4-0.4-0.6-0.6s-0.2-0.5-0.2-0.9c0-0.5,0.1-0.9,0.3-1.3
		c0.2-0.3,0.5-0.6,0.8-0.8c0.3-0.2,0.7-0.3,1.1-0.4c0.4-0.1,0.8-0.1,1.3-0.1c0.4,0,0.8,0,1.3,0.1c0.4,0.1,0.8,0.2,1.1,0.4
		c0.3,0.2,0.6,0.5,0.8,0.8s0.3,0.7,0.4,1.2h-2.1c0-0.4-0.2-0.7-0.5-0.9c-0.3-0.1-0.6-0.2-1-0.2c-0.1,0-0.3,0-0.4,0
		c-0.1,0-0.3,0-0.4,0.1c-0.1,0.1-0.2,0.1-0.3,0.2s-0.1,0.2-0.1,0.4c0,0.2,0.1,0.4,0.2,0.5c0.1,0.1,0.3,0.2,0.6,0.3s0.5,0.1,0.8,0.2
		s0.6,0.1,0.9,0.2c0.3,0.1,0.6,0.2,0.9,0.3c0.3,0.1,0.6,0.2,0.8,0.4c0.2,0.2,0.4,0.4,0.6,0.6s0.2,0.6,0.2,0.9c0,0.5-0.1,1-0.3,1.3
		c-0.2,0.4-0.5,0.6-0.8,0.9c-0.3,0.2-0.7,0.4-1.2,0.5c-0.4,0.1-0.9,0.1-1.3,0.1c-0.5,0-0.9,0-1.4-0.1c-0.4-0.1-0.8-0.2-1.2-0.5
		c-0.3-0.2-0.6-0.5-0.8-0.9s-0.3-0.8-0.4-1.3h2.1C237.1,33.7,237.2,33.9,237.3,34z"/>
	<path fill="#231F20" d="M243.7,30.3c0.2-0.5,0.5-1,0.8-1.3c0.4-0.4,0.8-0.6,1.3-0.8c0.5-0.2,1.1-0.3,1.7-0.3s1.2,0.1,1.7,0.3
		c0.5,0.2,0.9,0.5,1.3,0.8c0.4,0.4,0.6,0.8,0.8,1.3s0.3,1.1,0.3,1.7c0,0.6-0.1,1.2-0.3,1.7s-0.5,1-0.8,1.3c-0.4,0.4-0.8,0.6-1.3,0.8
		s-1.1,0.3-1.7,0.3s-1.2-0.1-1.7-0.3s-0.9-0.5-1.3-0.8c-0.4-0.4-0.6-0.8-0.8-1.3s-0.3-1.1-0.3-1.7C243.4,31.4,243.5,30.8,243.7,30.3
		z M245.7,33c0.1,0.3,0.2,0.6,0.3,0.8s0.3,0.4,0.6,0.6c0.2,0.1,0.6,0.2,0.9,0.2c0.4,0,0.7-0.1,0.9-0.2c0.3-0.1,0.5-0.3,0.6-0.6
		s0.3-0.5,0.3-0.8c0.1-0.3,0.1-0.6,0.1-0.9c0-0.3,0-0.6-0.1-0.9s-0.2-0.6-0.3-0.8c-0.1-0.2-0.3-0.4-0.6-0.6s-0.6-0.2-0.9-0.2
		c-0.4,0-0.7,0.1-0.9,0.2s-0.4,0.3-0.6,0.6c-0.1,0.2-0.3,0.5-0.3,0.8s-0.1,0.6-0.1,0.9C245.6,32.4,245.6,32.7,245.7,33z"/>
	<path fill="#231F20" d="M255.1,28.1v1.5l0,0c0.1-0.2,0.2-0.5,0.4-0.7s0.4-0.4,0.6-0.5s0.5-0.3,0.7-0.3s0.5-0.1,0.8-0.1
		c0.1,0,0.3,0,0.5,0.1v2c-0.1,0-0.2,0-0.4-0.1c-0.1,0-0.3,0-0.4,0c-0.4,0-0.7,0.1-1,0.2s-0.5,0.3-0.7,0.5s-0.3,0.5-0.4,0.8
		c-0.1,0.3-0.1,0.6-0.1,1V36h-2.2v-7.9H255.1z"/>
</g>
<g>
	<rect fill="#3A589A" width="16" height="16"/>
	<path fill="#FFFFFF" d="M10.3,15H8.2V9.5H6.8V7.6h1.4V6.5C8.2,4.9,8.6,4,10.5,4H12v1.9h-1c-0.7,0-0.7,0.3-0.7,0.8v1H12l-0.2,1.9
		h-1.5V15L10.3,15z"/>
</g>
<g>
	<rect x="18" fill="#DD4B39" width="16" height="16"/>
	<path fill="#FFFFFF" d="M26.4,3.7c0,0-2,0-2.7,0c-1.2,0-2.3,0.9-2.3,2s0.8,1.9,2,1.9c0.1,0,0.2,0,0.2,0c-0.1,0.2-0.1,0.3-0.1,0.5
		c0,0.3,0.2,0.5,0.4,0.7c-0.2,0-0.3,0-0.5,0c-1.5,0-2.6,0.9-2.6,1.9s1.3,1.6,2.7,1.6c1.7,0,2.6-1,2.6-1.9c0-0.8-0.2-1.2-0.9-1.7
		c-0.2-0.2-0.7-0.6-0.7-0.8c0-0.3,0.1-0.4,0.5-0.8c0.4-0.3,0.8-0.8,0.8-1.4c0-0.7-0.3-1.3-0.9-1.5h0.8L26.4,3.7L26.4,3.7z
		 M25.5,10.2c0,0.1,0,0.2,0,0.3c0,0.8-0.5,1.4-1.9,1.4c-1,0-1.8-0.6-1.8-1.4c0-0.8,0.9-1.4,1.9-1.4c0.2,0,0.5,0,0.7,0.1
		C25,9.6,25.4,9.8,25.5,10.2L25.5,10.2z M23.9,7.3c-0.7,0-1.3-0.8-1.5-1.7s0.3-1.6,1-1.6s1.3,0.7,1.5,1.7S24.6,7.3,23.9,7.3z
		 M29.2,5.6V3.7h-0.6v1.9h-1.9v0.6h1.9v1.9h0.6V6.2h1.9V5.6H29.2z"/>
</g>
<g>
	<rect x="36" fill="#28AAE1" width="16" height="16"/>
	<path fill="#FFFFFF" d="M47.9,5.5c-0.3,0.1-0.6,0.2-0.9,0.3c0.3-0.2,0.6-0.5,0.7-0.9c-0.3,0.2-0.7,0.3-1,0.4
		C46.4,5,46,4.8,45.5,4.8c-0.9,0-1.6,0.7-1.6,1.6c0,0.1,0,0.3,0,0.4c-1.3-0.1-2.5-0.7-3.3-1.7c-0.1,0.2-0.2,0.5-0.2,0.8
		c0,0.6,0.3,1.1,0.7,1.4c-0.3,0-0.5-0.1-0.7-0.2l0,0c0,0.8,0.6,1.4,1.3,1.6c-0.1,0-0.3,0.1-0.4,0.1c-0.1,0-0.2,0-0.3,0
		c0.2,0.6,0.8,1.1,1.5,1.1c-0.6,0.4-1.3,0.7-2,0.7c-0.1,0-0.3,0-0.4,0c0.7,0.5,1.6,0.7,2.5,0.7c3,0,4.6-2.5,4.6-4.6
		c0-0.1,0-0.1,0-0.2C47.4,6.2,47.7,5.9,47.9,5.5L47.9,5.5z"/>
</g>
<g>
	<path fill="#349E45" d="M209.1,12.8c0-0.1,0.1-0.2,0.1-0.3C210,8.8,211,5.3,212,1.8c0.1-0.3,0.2-0.3,0.4-0.3c1.8,0,3.7,0,5.5,0
		c0.2,0,0.4,0,0.4,0.3c0,1.1,0.1,2.3,0.2,3.4c0.1,1.7,0.2,3.5,0.3,5.2c0,1,0.1,1.9,0.1,2.9c0.1,1.8,0.2,3.6,0.3,5.4
		c0,0.6,0,0.6-0.5,0.6c-1.3,0-2.5,0-3.8,0c-0.3,0-0.3-0.1-0.3-0.4c0-1.6-0.1-3.1-0.1-4.7s-0.1-3.2-0.1-4.9c0-1,0-2.1,0-3.1
		c0-0.2,0-0.4,0-0.6h-0.1c-0.1,0.2-0.1,0.4-0.2,0.6c-0.9,3.2-1.7,6.3-2.6,9.5c-0.3,0.9-0.5,1.9-0.8,2.8c-0.1,0.2-0.2,0.3-0.4,0.3
		c-1,0-2.1,0-3.1,0c-0.2,0-0.3-0.1-0.4-0.3c-0.7-2.9-1.4-5.8-2-8.7c-0.3-1.3-0.5-2.6-0.7-3.9c0-0.1,0-0.1-0.1-0.3
		c0,0.1-0.1,0.2-0.1,0.3c0,1.1-0.1,2.2-0.1,3.2c-0.1,1.9-0.2,3.7-0.2,5.6c-0.1,1.4-0.1,2.9-0.2,4.3c0,0.1,0,0.2-0.2,0.2
		c-1.3,0-2.7,0-4,0h-0.1c0-0.2,0-0.5,0-0.7c0.1-1.3,0.2-2.6,0.2-3.8c0.1-1.8,0.2-3.5,0.3-5.3c0.1-1.2,0.1-2.3,0.2-3.5
		c0.1-1.4,0.2-2.7,0.2-4.1c0-0.3,0.1-0.4,0.4-0.4c1.9,0,3.8,0,5.7,0c0.3,0,0.4,0.1,0.4,0.3c0.6,2.7,1.3,5.4,1.9,8.2
		c0.2,0.9,0.3,1.7,0.5,2.6C209,12.6,209,12.7,209.1,12.8C209.1,12.7,209.1,12.7,209.1,12.8z"/>
	<path fill="#349E45" d="M249.7,7.6c0.1-0.1,0.1-0.2,0.2-0.3c1.6-1.7,4.6-1.9,6.2-0.3c0.8,0.8,1.2,1.8,1.4,2.9
		c0.1,0.6,0.1,1.1,0.1,1.7c0,2.4,0,4.8,0,7.2c0,0.4,0,0.4-0.4,0.4c-1.3,0-2.6,0-3.9,0c-0.2,0-0.3-0.1-0.3-0.3c0-2.2,0-4.5,0-6.7
		c0-0.5-0.1-1-0.2-1.5c-0.2-0.8-0.9-1.1-1.8-1c-0.7,0.1-1.3,0.7-1.4,1.4c0,0.2-0.1,0.5-0.1,0.7c0,2.3,0,4.7,0,7
		c0,0.3-0.1,0.4-0.3,0.4c-1.3,0-2.7,0-4,0c-0.3,0-0.4-0.1-0.4-0.4c0-4.7,0-9.4,0-14.1c0-1.3,0-2.6,0-3.9c0-0.2,0.1-0.3,0.3-0.3
		c1.4,0,2.7,0,4.1,0c0.2,0,0.3,0.1,0.3,0.3c0,2.1,0,4.3,0,6.4c0,0.1,0,0.2,0,0.3C249.6,7.6,249.7,7.6,249.7,7.6z"/>
	<path fill="#231F20" d="M282.5,19.2c-1.4,0-2.8,0-4.2,0c-0.1-0.4-0.2-0.7-0.3-1.2c-0.1,0.1-0.2,0.2-0.2,0.2
		c-1.6,1.6-4.7,1.7-6.4,0.2c-1.9-1.7-1.8-5.2,0.6-6.7c1-0.7,2.1-1,3.3-1.2c0.8-0.1,1.5-0.2,2.3-0.2c0.1-0.4-0.1-0.7-0.5-0.9
		c-0.5-0.3-1.1-0.3-1.7-0.3c-1.3,0-2.2,0.3-3.6,1c0-0.1-0.1-0.2-0.1-0.2c-0.2-0.9-0.5-1.7-0.7-2.6c0-0.2,0-0.2,0.1-0.3
		c2.5-1.1,5-1.4,7.6-0.8c2.1,0.5,3.2,2,3.5,4.1c0.1,0.5,0.1,1.1,0.1,1.6c0,1.9,0,3.8,0,5.7C282.4,18.1,282.5,18.7,282.5,19.2z
		 M277.7,13.3c-0.3,0-0.7,0-1,0.1c-0.5,0.1-1.1,0.2-1.5,0.5c-0.7,0.5-0.7,1.6,0,2.1c0.9,0.6,2.3,0,2.5-1
		C277.7,14.4,277.7,13.9,277.7,13.3z"/>
	<path fill="#231F20" d="M295,8.4c0.4-0.1,0.8-0.2,1.2-0.3h0.1c0.3,0,0.5-0.1,0.7,0.2c0.1,0.3-0.1,0.5-0.2,0.6
		c-1.1,1.2-2.2,2.4-3.4,3.5c-0.2,0.2-0.4,0.4-0.6,0.6c0.8,1.2,1.9,2,3.3,2.3c0.3,0.1,0.6,0.1,0.9,0.2c0.5,0.1,0.9,0.4,1.2,0.8
		c0.4,0.6,0.6,1.2,0.4,2c-0.4,1.5-2.4,2.3-3.7,1.5c-0.4-0.3-0.6-0.7-0.7-1.1c-0.2-0.7-0.4-1.4-1-1.9c-0.6-0.6-1.3-1.3-2-1.8
		c-0.8-0.6-1.1-0.4-1.5,0.4c-0.3,0.7-0.3,1.4-0.4,2.1c-0.1,0.5-0.2,1-0.4,1.4c-0.3,0.8-1,1.3-1.9,1.4c-1.1,0.1-2-0.3-2.6-1.2
		c-0.3-0.4-0.3-0.9-0.2-1.4c0.1-0.3,0.2-0.6,0.3-0.9c-0.2,0-0.4,0-0.6,0c-0.5,0-0.7-0.4-0.4-0.8c0.4-0.6,0.9-1.1,1.4-1.7
		c0.8-0.8,1.7-1.6,2.5-2.4c0.2-0.1,0.2-0.2,0.1-0.4c-0.4-0.9-0.9-1.6-1.6-2.3c-0.5-0.5-1.1-0.6-1.7-0.8c-0.3-0.1-0.6-0.2-0.9-0.3
		c-1.2-0.5-1.6-1.7-1-2.8c0.2-0.3,0.4-0.6,0.7-0.9c0.4-0.4,1-0.5,1.6-0.4c0.8,0.2,1.4,0.7,1.7,1.5c0.2,0.4,0.3,0.8,0.5,1.1
		c0.5,1.2,1.5,1.9,2.7,2.3c0.9,0.3,1.6-0.2,1.9-1c0.1-0.4,0.2-0.8,0.2-1.1c0.1-0.7,0.4-1.3,0.9-1.7c0.6-0.5,1.4-0.6,2.1-0.2
		c0.5,0.3,0.9,0.7,1.1,1.1c0.3,0.6,0.3,1.2-0.1,1.7C295.3,8,295.1,8.2,295,8.4z M294.6,15.2c-0.1,0-0.2,0.1-0.2,0.1
		c0,0.1,0,0.2,0.1,0.3s0.3,0.3,0.5,0.4c0.8,0.5,1.6,0.9,2.5,1.3c0.1,0,0.2,0,0.2,0c0-0.1,0.1-0.2,0-0.3c-0.1-0.2-0.2-0.3-0.3-0.4
		c-0.7-0.6-1.5-1.1-2.4-1.4C294.8,15.3,294.7,15.2,294.6,15.2z M296.4,8.4L296.4,8.4c-0.1,0-0.2,0-0.2,0c-1.9,0.7-3.9,1.5-5.8,2.2
		c-0.1,0.1-0.3,0.1-0.4,0.2l-0.1,0.2c0.1,0.2,0.5,0.2,0.6,0c0.1-0.3,0.4-0.4,0.7-0.6c1.6-0.6,3.3-1.3,4.9-1.9
		C296.2,8.5,296.3,8.5,296.4,8.4z M285.3,16.6C285.3,16.6,285.2,16.6,285.3,16.6c-0.2,0-0.3,0.1-0.3,0.2c-0.5,0.5-0.6,1.6-0.3,2.2
		c0.1,0.2,0.3,0.4,0.6,0.4c0.3,0.1,0.4-0.1,0.3-0.3c0-0.1-0.1-0.2-0.1-0.3c-0.2-0.3-0.3-0.6-0.4-0.9s-0.1-0.6,0.1-0.9
		C285.2,16.8,285.2,16.7,285.3,16.6z M284.2,4.5c-0.1,0.1-0.3,0.2-0.4,0.3c0,0.1,0,0.3,0.1,0.4c0,0.1,0.1,0.2,0.2,0.2
		c0.1,0.1,0.3,0.1,0.4,0c0.2-0.1,0.3-0.3,0.4-0.5c0,0,0-0.1-0.1-0.2C284.7,4.7,284.5,4.6,284.2,4.5z M293.9,6.2
		c0.3,0,0.6-0.2,0.6-0.5c0-0.2-0.2-0.4-0.5-0.4c-0.4,0-0.6,0.2-0.6,0.5C293.5,6.1,293.6,6.2,293.9,6.2z M284.3,15.5c1-1,2-1.9,3-2.8
		l-0.1-0.1C286.2,13.5,285.2,14.3,284.3,15.5z"/>
	<path fill="#231F20" d="M264.3,1.4c1.6,0,3.2,0,4.8,0c0,0.1,0,0.2,0,0.3c0,3.7,0,7.3,0,11c0,1.1-0.2,2.2-0.6,3.3
		c-0.6,1.5-1.7,2.6-3.3,3.1c-2,0.6-4.1,0.5-6.1,0c0.2-1.3,0.4-2.5,0.5-3.8c0.5,0.1,0.9,0.2,1.4,0.2c0.4,0,0.8,0.1,1.1,0
		c1.2-0.1,1.9-0.8,2-2c0.1-0.4,0.1-0.7,0.1-1.1c0-3.5,0-7.1,0-10.6C264.3,1.7,264.3,1.6,264.3,1.4z"/>
	<path fill="#349E45" d="M239.9,2.6c0,0.4,0,0.7,0,1.1c0,0.7,0,1.5,0,2.2c0,0.3,0.1,0.4,0.4,0.4c0.7,0,1.3,0,2,0
		c0.2,0,0.4,0.1,0.3,0.3c0,0.9,0,1.9,0,2.8c0,0.2-0.1,0.3-0.3,0.3c-0.7,0-1.4,0-2.1,0c-0.2,0-0.3,0-0.3,0.3c0,1.3,0,2.6,0,3.9
		c0,0.2,0,0.4,0.1,0.6c0.2,0.8,0.7,1.2,1.6,1.1c0.3,0,0.6,0,1-0.1c0,0.3,0,0.5,0,0.8c0,0.8,0,1.6,0,2.5c0,0.1,0,0.3-0.2,0.3
		c-1.4,0.3-2.8,0.5-4.2,0.1c-1.5-0.4-2.4-1.5-2.6-3c-0.1-0.6-0.2-1.2-0.2-1.8c0-1.5,0-3,0-4.4c0-0.3-0.1-0.3-0.3-0.3
		c-0.3,0-0.7,0-1,0c-0.2,0-0.2-0.1-0.2-0.2c0-1,0-2,0-2.9c0-0.2,0.1-0.3,0.3-0.2c0.4,0,0.7,0,1.1,0c0.2,0,0.3-0.1,0.3-0.3
		c0-0.7,0-1.3,0-2c0-0.2,0.1-0.2,0.2-0.3c1.4-0.4,2.8-0.8,4.2-1.1C239.8,2.6,239.8,2.6,239.9,2.6z"/>
	<path fill="#FFFFFF" d="M277.7,13.3c0,0.6,0.1,1.2,0,1.7c-0.2,1-1.6,1.6-2.5,1c-0.7-0.4-0.6-1.6,0-2.1c0.4-0.3,1-0.5,1.5-0.5
		C277,13.3,277.3,13.3,277.7,13.3z"/>
	<path fill="#349E45" d="M232.7,19c-0.1-0.7-0.1-1.3-0.2-2c0-1.7,0-3.4,0-5.2c0-0.6,0-1.1-0.1-1.7c-0.2-1-0.5-1.9-1.3-2.7
		c-1.1-1.1-2.4-1.5-3.9-1.5c-0.9,0-1.8,0-2.7,0.1c-1.1,0.1-2.1,0.4-3.1,0.9c-0.2,0.1-0.2,0.2-0.2,0.4c0.2,0.6,0.3,1.2,0.5,1.7
		c0.1,0.3,0.2,0.6,0.3,1c0.1,0,0.1,0,0.1,0c1.1-0.6,2.2-0.9,3.5-0.9c0.5,0,1.1,0,1.6,0.2c0.4,0.2,0.6,0.5,0.6,1
		c-0.2,0-0.4,0-0.6,0.1c-1.2,0-2.4,0.2-3.6,0.6c-2.1,0.8-3.5,2.3-3.3,4.8c0.1,1.4,0.8,2.4,2,3.1c0.9,0.5,1.8,0.6,2.8,0.5
		c1.1-0.1,2.1-0.4,2.9-1.2c0.1-0.1,0.1-0.1,0.3-0.2c0.1,0.3,0.2,0.6,0.2,0.8c0,0.3,0.2,0.4,0.4,0.4c1,0,2,0,3.1,0c0.2,0,0.5,0,0.8,0
		C232.7,19.1,232.7,19.1,232.7,19z M227.9,14.1c0,0.2,0,0.3,0,0.5c0,1.1-1.1,1.9-2.1,1.6c-0.5-0.1-0.8-0.4-0.9-0.8
		c-0.1-0.5,0-1,0.4-1.4s1-0.5,1.5-0.6c0.3,0,0.6-0.1,0.9-0.1c0.1,0,0.2,0.1,0.2,0.2C228,13.7,227.9,13.9,227.9,14.1L227.9,14.1z"/>
	<g>
		<path fill="#FFFFFF" d="M294.6,15.2c0.1,0,0.2,0.1,0.3,0.1c0.9,0.3,1.7,0.8,2.4,1.4c0.1,0.1,0.2,0.3,0.3,0.4c0,0.1,0,0.2,0,0.3
			c0,0-0.1,0-0.2,0c-0.8-0.4-1.6-0.9-2.5-1.3c-0.2-0.1-0.4-0.2-0.5-0.4c-0.1-0.1-0.1-0.2-0.1-0.3C294.4,15.3,294.5,15.2,294.6,15.2z
			"/>
		<path fill="#FFFFFF" d="M296.4,8.4c-0.1,0.1-0.2,0.1-0.3,0.2c-1.6,0.7-3.3,1.3-4.9,1.9c-0.3,0.1-0.5,0.3-0.7,0.6
			c-0.1,0.2-0.5,0.2-0.6,0c0-0.1,0-0.2,0.1-0.2c0.1-0.1,0.2-0.2,0.4-0.2c1.9-0.7,3.9-1.5,5.8-2.2C296.3,8.4,296.3,8.4,296.4,8.4
			L296.4,8.4z"/>
		<path fill="#FFFFFF" d="M285.3,16.6c-0.1,0.1-0.1,0.2-0.2,0.3c-0.2,0.3-0.2,0.6-0.1,0.9s0.3,0.6,0.4,0.9c0,0.1,0.1,0.2,0.1,0.3
			c0.1,0.3-0.1,0.4-0.3,0.3c-0.3-0.1-0.5-0.2-0.6-0.4c-0.3-0.6-0.2-1.7,0.3-2.2C285,16.7,285.1,16.7,285.3,16.6
			C285.2,16.6,285.3,16.6,285.3,16.6z"/>
		<path fill="#FFFFFF" d="M284.2,4.5c0.3,0.1,0.5,0.2,0.7,0.3c0.1,0,0.1,0.1,0.1,0.2c-0.1,0.2-0.2,0.4-0.4,0.5c-0.1,0.1-0.3,0-0.4,0
			S284,5.4,284,5.3c-0.1-0.1-0.1-0.3-0.1-0.4C283.9,4.7,284.1,4.6,284.2,4.5z"/>
		<path fill="#FFFFFF" d="M293.9,6.2c-0.4,0-0.5-0.1-0.5-0.5c0-0.3,0.2-0.5,0.6-0.5c0.3,0,0.5,0.2,0.5,0.4
			C294.5,6,294.3,6.2,293.9,6.2z"/>
		<path fill="#FFFFFF" d="M284.3,15.5c0.8-1.1,1.9-2,2.9-2.9l0.1,0.1C286.4,13.6,285.4,14.5,284.3,15.5z"/>
	</g>
</g>
<path fill="#A1A1A1" d="M74.1,2.3V1.2h-9.9v1.1h-2.5v4.9c0,1,1.2,1.8,2.9,2.2c0.6,1.1,2,1.8,3.6,2.1v1.9c-1.9,0.2-3.3,0.8-3.3,1.6
	h8.6c0-0.8-1.4-1.4-3.3-1.6v-1.9c1.6-0.2,2.9-1,3.5-2c1.7-0.4,3-1.2,3-2.2V2.3H74.1z M62.8,7.2V3.4h1.4v4.4h0c0,0.1,0,0.1,0,0.2
	c0,0,0,0,0,0.1C63.3,7.8,62.8,7.4,62.8,7.2z M71.3,9.4l-2.1-1.5l-2.1,1.5l0.8-2.5l-2.1-1.5h2.6l0.8-2.5L70,5.3h2.6l-2.1,1.5
	L71.3,9.4z M75.5,7.2c0,0.2-0.5,0.6-1.4,0.9c0,0,0-0.1,0-0.1c0-0.1,0-0.1,0-0.2h0V3.4h1.4V7.2z"/>
<g>
	<g>
		<path fill="#A1A1A1" d="M114.9,2.3h-9.9c-0.9,0-1.6,0.7-1.6,1.6v6.5c0,0.9,0.7,1.6,1.6,1.6h5l1,3l1.9-3h1.9c0.9,0,1.6-0.7,1.6-1.6
			V4C116.5,3.1,115.7,2.3,114.9,2.3z"/>
	</g>
</g>
<g>
	<g>
		<polygon fill="#A1A1A1" points="80.9,10.5 86,2.8 91.1,10.5 		"/>
		<rect x="84.5" y="10.1" fill="#A1A1A1" width="3.1" height="4.1"/>
	</g>
	<path fill="#A1A1A1" d="M94.6,3.7v2.9v1h1h1.9l-3.5,5.2l-3.5-5.2h1.9h1v-1V3.7H94.6 M95.5,2.7h-3.2v3.8h-3.7l5.3,7.9l5.3-7.9h-3.7
		V2.7L95.5,2.7z"/>
</g>
<g>
	<path id="pensil_1_" fill="#A1A1A1" d="M136.4,2.4l-1.5-1.5c-0.4-0.4-1-0.4-1.4,0l-1,0.9l2.8,2.9l1-0.9
		C136.7,3.4,136.8,2.8,136.4,2.4z M124.7,9.3l2.8,2.9l6.9-6.6l-2.8-2.9L124.7,9.3z M123,13.8l3.3-0.5l-2.7-2.8L123,13.8z"/>
</g>
</svg>
